<?xml version="1.0" encoding="utf-8"?>
<!-- Generator: Adobe Illustrator 19.0.0, SVG Export Plug-In . SVG Version: 6.00 Build 0)  -->
<svg version="1.1" id="Layer_1" xmlns="http://www.w3.org/2000/svg" xmlns:xlink="http://www.w3.org/1999/xlink" x="0px" y="0px"
	 viewBox="0 0 309 306" style="enable-background:new 0 0 309 306;" xml:space="preserve">
<style type="text/css">
	.st0{fill:#6AA96A;}
	.st1{fill:#9F4793;}
	.st2{fill:#782264;}
	.st3{fill:#CC87BA;}
	.st4{fill:#424143;}
	.st5{fill:#D2D3D4;}
	.st6{fill:#223740;}
	.st7{fill:#507488;stroke:#588CA3;stroke-width:5;stroke-miterlimit:10;}
	.st8{fill:#214856;}
	.st9{fill:#082830;}
	.st10{fill:#507488;}
	.st11{fill:#BE202E;}
	.st12{fill:#939598;}
</style>
<g id="XMLID_44_">
	<g id="XMLID_46_">
		<g id="XMLID_2140_">
			<g id="XMLID_2141_">
				<g id="XMLID_2142_">
					<g id="XMLID_2145_">
						<path id="XMLID_3503_" class="st0" d="M11.6,209.1c-1.4-3.5-2.6-7-3.7-10.6C9,202.1,10.2,205.6,11.6,209.1z"/>
						<path id="XMLID_2291_" class="st0" d="M9,103.9c0.7-2,1.4-4.1,2.2-6.1C10.5,99.9,9.7,101.9,9,103.9z"/>
						<path id="XMLID_2284_" class="st0" d="M7.9,198.5c-0.7-2.4-1.4-4.8-2.1-7.3C6.4,193.7,7.1,196.1,7.9,198.5z"/>
						<path id="XMLID_2203_" class="st0" d="M17.7,83.3c3-5.8,6.3-11.4,10-16.8C24.1,71.9,20.7,77.5,17.7,83.3z"/>
						<path id="XMLID_2200_" class="st0" d="M38.3,52.9c0.9-1,1.7-2,2.6-2.9C40,50.9,39.2,51.9,38.3,52.9z"/>
						<path id="XMLID_2169_" class="st0" d="M60.2,32.1c1.4-1.1,2.9-2.2,4.4-3.3C63.1,29.9,61.7,31,60.2,32.1z"/>
						<path id="XMLID_2168_" class="st0" d="M83.2,17.3c0.9-0.5,1.8-1,2.8-1.4C85.1,16.4,84.1,16.9,83.2,17.3z"/>
						<path id="XMLID_2167_" class="st0" d="M3.4,180.1c-0.7-3.8-1.2-7.6-1.6-11.4C2.2,172.5,2.7,176.3,3.4,180.1z"/>
						<path id="XMLID_2166_" class="st0" d="M45.8,44.8C45.8,44.8,45.8,44.8,45.8,44.8C45.8,44.8,45.8,44.8,45.8,44.8z"/>
						<path id="XMLID_2165_" class="st0" d="M5.8,191.2c-0.9-3.7-1.8-7.4-2.4-11.2C4.1,183.8,4.9,187.5,5.8,191.2z"/>
						<path id="XMLID_2164_" class="st0" d="M43.2,258.5c3.4,3.5,6.9,6.9,10.6,10.1C50.2,265.4,46.6,262.1,43.2,258.5z"/>
						<path id="XMLID_2158_" class="st0" d="M38.3,253.1c-1.6-1.9-3.2-3.7-4.7-5.7C35.1,249.3,36.7,251.2,38.3,253.1z"/>
						<path id="XMLID_2157_" class="st1" d="M154,0v306c-15.8,0-31.1-2.4-45.5-6.9c14.4,4.5,29.6,6.9,45.5,6.9
							c84.5,0,153-68.5,153-153C307,68.5,238.5,0,154,0z"/>
						<path id="XMLID_2156_" class="st0" d="M1.8,168.6c-0.4-3.9-0.6-7.8-0.7-11.7C1.1,160.9,1.4,164.8,1.8,168.6z"/>
						<path id="XMLID_2155_" class="st0" d="M43.2,258.5c-1.7-1.8-3.3-3.6-4.9-5.4C39.9,254.9,41.6,256.8,43.2,258.5z"/>
						<path id="XMLID_2154_" class="st0" d="M1,153c0,1.3,0,2.6,0,3.9C1,155.6,1,154.3,1,153L1,153z"/>
						<path id="XMLID_2153_" class="st0" d="M31.4,244.5c-5.1-6.9-9.7-14.2-13.7-21.9C21.7,230.3,26.3,237.6,31.4,244.5z"/>
						<path id="XMLID_2152_" class="st0" d="M17.7,222.6c-1.1-2.2-2.2-4.4-3.2-6.7C15.5,218.2,16.6,220.4,17.7,222.6z"/>
						<path id="XMLID_2148_" class="st0" d="M108.5,299.1c-20.4-6.3-38.9-16.8-54.6-30.4C69.6,282.3,88.1,292.7,108.5,299.1z"/>
					</g>
					<path id="XMLID_2144_" class="st2" d="M154,0C69.5,0,1,68.5,1,153c0,84.5,68.5,153,153,153V0z"/>
					<circle id="XMLID_2143_" class="st3" cx="154" cy="153" r="135.8"/>
				</g>
			</g>
		</g>
	</g>
	<g id="XMLID_45_">
		<rect id="XMLID_2131_" x="71.7" y="113.4" class="st4" width="164.6" height="95.1"/>
		<circle id="XMLID_2130_" class="st5" cx="172.9" cy="161" r="41.2"/>
		<rect id="XMLID_2129_" x="71.7" y="113.4" class="st5" width="164.6" height="18"/>
		<rect id="XMLID_2120_" x="71.7" y="190.5" class="st5" width="164.6" height="18"/>
		<circle id="XMLID_2117_" class="st6" cx="172.9" cy="161" r="35.1"/>
		<circle id="XMLID_2116_" class="st7" cx="172.9" cy="161" r="25.3"/>
		<circle id="XMLID_2109_" class="st8" cx="172.9" cy="161" r="13.8"/>
		<circle id="XMLID_2063_" class="st9" cx="172.9" cy="161" r="8.7"/>
		<path id="XMLID_291_" class="st5" d="M204.1,121.5c0,1.7-1.4,3-3.2,3h-54.3c-1.7,0-3.2-1.4-3.2-3v-21c0-1.7,1.4-3,3.2-3H201
			c1.7,0,3.2,1.4,3.2,3V121.5z"/>
		<path id="XMLID_139_" class="st10" d="M199.3,112.6c0,1.7-1.4,3-3,3h-25.6c-1.7,0-3-1.4-3-3v-9.1c0-1.7,1.4-3,3-3h25.6
			c1.7,0,3,1.4,3,3V112.6z"/>
		<path id="XMLID_138_" class="st6" d="M162.2,106.3c0,1.7-1.4,3-3,3h-5.3c-1.7,0-3-1.4-3-3v-1.6c0-1.7,1.4-3,3-3h5.3
			c1.7,0,3,1.4,3,3V106.3z"/>
		<circle id="XMLID_136_" class="st11" cx="159.1" cy="113.7" r="2.1"/>
		<rect id="XMLID_114_" x="86" y="108" class="st12" width="20.2" height="5.4"/>
	</g>
</g>
</svg>
