<?xml version="1.0" encoding="utf-8"?>
<!-- Generator: Adobe Illustrator 19.0.0, SVG Export Plug-In . SVG Version: 6.00 Build 0)  -->
<svg version="1.1" id="Layer_1" xmlns="http://www.w3.org/2000/svg" xmlns:xlink="http://www.w3.org/1999/xlink" x="0px" y="0px"
	 viewBox="0 0 612 792" style="enable-background:new 0 0 612 792;" xml:space="preserve">
<style type="text/css">
	.st0{fill:#F06096;}
	.st1{fill:#DB4F84;}
	.st2{fill:#F0D348;}
	.st3{fill:#FBF0B1;}
</style>
<g id="XMLID_2064_">
	<g id="XMLID_3713_">
		<g id="XMLID_3722_">
			<path id="XMLID_2053_" class="st0" d="M408.6,313.2c-28.8,59.3-101.3,83.6-101.3,83.6s-25.9-71.9,2.9-131.3
				c28.8-59.3,101.3-83.6,101.3-83.6S437.4,253.9,408.6,313.2z"/>
			<path id="XMLID_2002_" class="st0" d="M303.5,530.1c-28.8,59.3-101.3,83.6-101.3,83.6s-25.9-71.9,2.9-131.3
				c28.8-59.3,101.3-83.6,101.3-83.6S332.3,470.8,303.5,530.1z"/>
		</g>
		<g id="XMLID_3715_">
			<path id="XMLID_2001_" class="st0" d="M222.2,296.1c59.3,28.8,83.6,101.3,83.6,101.3s-72,25.9-131.3-2.9
				C115.2,365.7,91,293.2,91,293.2S162.9,267.3,222.2,296.1z"/>
			<path id="XMLID_2000_" class="st0" d="M439.2,401.2c59.3,28.8,83.6,101.3,83.6,101.3s-71.9,25.9-131.3-2.9
				c-59.3-28.8-83.6-101.3-83.6-101.3S379.8,372.4,439.2,401.2z"/>
		</g>
	</g>
	<g id="XMLID_2067_">
		<g id="XMLID_3703_">
			<path id="XMLID_1996_" class="st1" d="M317.9,277.8c19.7,56.7-11.4,119-11.4,119s-63-29.7-82.7-86.4
				c-19.7-56.7,11.4-119,11.4-119S298.2,221.1,317.9,277.8z"/>
			<path id="XMLID_297_" class="st1" d="M389.9,485.2c19.7,56.7-11.4,119-11.4,119s-63-29.7-82.7-86.4c-19.7-56.7,11.4-119,11.4-119
				S370.2,428.5,389.9,485.2z"/>
		</g>
		<g id="XMLID_2068_">
			<path id="XMLID_274_" class="st1" d="M186.9,386.8c56.7-19.7,119,11.4,119,11.4s-29.7,63-86.4,82.7c-56.7,19.7-119-11.4-119-11.4
				S130.1,406.5,186.9,386.8z"/>
			<path id="XMLID_187_" class="st1" d="M394.2,314.8c56.7-19.7,119,11.4,119,11.4s-29.7,63-86.4,82.7c-56.7,19.7-119-11.4-119-11.4
				S337.5,334.5,394.2,314.8z"/>
		</g>
	</g>
	<circle id="XMLID_184_" class="st2" cx="307.4" cy="396.8" r="42.4"/>
	<circle id="XMLID_182_" class="st3" cx="307.4" cy="396.8" r="21.6"/>
</g>
</svg>
