<?xml version="1.0" encoding="utf-8"?>
<!-- Generator: Adobe Illustrator 19.0.0, SVG Export Plug-In . SVG Version: 6.00 Build 0)  -->
<svg version="1.1" id="Layer_1" xmlns="http://www.w3.org/2000/svg" xmlns:xlink="http://www.w3.org/1999/xlink" x="0px" y="0px"
	 viewBox="0 0 764.9 651.8" style="enable-background:new 0 0 764.9 651.8;" xml:space="preserve">
<style type="text/css">
	.st0{opacity:0.8;}
	.st1{fill:#FFFFFF;}
	.st2{font-family:'OpenSans-Bold';}
	.st3{font-size:76.3987px;}
	.st4{font-family:'OpenSans';}
	.st5{fill:none;stroke:#FFFFFF;stroke-width:4;stroke-miterlimit:10;}
</style>
<g id="XMLID_27_" class="st0">
	<g id="XMLID_3664_">
		<path id="XMLID_4157_" class="st1" d="M174,264.2c0-8,0-16,0-24c1.6-9.8,2.6-19.7,4.8-29.4C203.1,102.3,307.2,35.6,415.4,58.8
			c107.1,23,175.4,132.5,150,238.9C542.4,394,447.4,465.9,337.3,447c-76.1-13.1-141.3-74.6-157.6-150.2
			C177.3,286,175.8,275,174,264.2z M364.7,136.3c13.3,4,14.4,5.9,13.8,18.8c-0.2,3.9-0.5,8.3,1,11.8c10.6,24.9,24.5,47.7,43.6,67.3
			c11.1,11.4,22.4,22.9,32.2,35.4c6,7.7,12.7,12.6,21.9,13.5c19,1.8,38.1,2.6,57.1,4.4c6.9,0.7,8.8-2.1,9.6-8.2
			c7.2-52.5-5.3-99.7-40.1-139.8c-52.4-60.3-131.8-76.8-205-43.9c-70.6,31.7-112.1,114.5-96.4,190.2
			c17.7,85.1,94.8,144.5,180.1,139.2c16.9-1,33.6-4.4,49.5-10.2c14.4-5.3,34.4-12,44-24.7c-8.4-3-20.9-2.2-29.5,0.2
			c-11.6,3.1-23,7.9-34.9,9.9c-15.2,2.5-31.2,0.9-46.5-0.2c-15.9-1.2-31.8-3.2-47.4-6.2c-6.5-1.3-13.2-4.3-15.9-10.8
			c-0.9-2.3-0.5-21.5,2.6-20.5c-16.8-5.8-17.1-25.5-5.4-37.3c-6.9-5.1-10.2-12.1-9.6-20.7c0.6-8.5,4.9-14.9,12.6-19.3
			c-1.8-1.4-2.9-2.1-3.9-3c-12.7-10.8-9.7-30.3,5.7-36.4c3.6-1.4,7.7-2.3,11.6-2.5c14.2-0.5,28.5-0.4,42.7-1
			c7.1-0.3,9.8-3.3,8.2-10.3c-2.7-11.6-5.4-23.4-10.1-34.3c-5.5-12.6-7.2-25.3-4.4-38.3c1.6-7.5,5.7-14.4,8.1-20.4
			c-8.3-1.4-18.1-1.3-26.4-4.8c-9.8-4.2-12.2-14.5-13.1-25.4c17.4-0.8,31.7,3.6,41.4,20.6c-1.5-20.4,5.5-31,19.6-31.6
			c5.1,13.5,0.8,26.3-11.4,34.1C368.2,132.7,366.8,134.4,364.7,136.3z"/>
	</g>
	<text id="XMLID_3750_" transform="matrix(1 0 0 1 139.1004 576.0133)"><tspan x="0" y="0" class="st1 st2 st3">Green</tspan><tspan x="230.5" y="0" class="st1 st4 st3">Thumb</tspan></text>
	<circle id="XMLID_3263_" class="st5" cx="372.4" cy="252.1" r="212.4"/>
</g>
</svg>
